<?xml version="1.0" encoding="utf-8"?>
<!-- Generator: Adobe Illustrator 28.3.0, SVG Export Plug-In . SVG Version: 6.00 Build 0)  -->
<svg version="1.1" id="Слой_1" xmlns="http://www.w3.org/2000/svg" xmlns:xlink="http://www.w3.org/1999/xlink" x="0px" y="0px"
	 viewBox="0 0 1440 1440" style="enable-background:new 0 0 1440 1440;" xml:space="preserve">
<style type="text/css">
	.st0{fill:#B4A98D;}
	.st1{fill:#B6A88D;}
	.st2{fill:#665E4B;}
	.st3{fill:#B4A88E;}
</style>
<g transform="translate(0.000000,1440.000000) scale(0.100000,-0.100000)">
	<path class="st0" d="M9920,10590C7333,9469,7224,9423,7195,9435c-16,7-1226,531-2687,1164c-1462,633-2662,1151-2668,1151
		c-5,0-10-17-9-37c1-21,1-1817,0-3990l-1-3953h-180h-180v-120v-120h495h495v120v120h-190h-190v3805c0,2093,3,3805,6,3805
		s1159-499,2569-1110c1409-610,2566-1110,2570-1110s1160,500,2570,1110c1409,611,2565,1110,2569,1110c3,0,6-1712,6-3805V3770h-190
		h-190v-120v-120h495h495v120v120h-180h-180v3858c-1,2121-1,3919,0,3995c1,75,0,137-2,136C12616,11759,11402,11233,9920,10590z"/>
	<path class="st1" d="M2420,10383c0-329-1-1699-2-3045l-3-2447l70-30c39-17,108-46,155-65s146-61,220-94
		c324-142,4377-1895,4392-1899c20-6,4112,1763,4546,1964l312,146v3033c0,1827-4,3034-9,3034c-28,0-385-152-2508-1070L7260,8901
		l-132,58c-1558,682-4674,2021-4703,2021C2422,10980,2420,10711,2420,10383z M4930,9755c1268-549,2312-1000,2322-1002
		c13-4,1365,578,4621,1988l87,38V7879c0-2753-1-2900-17-2905c-10-3-1068-460-2351-1014L7260,2951l-58,26
		c-182,81-4601,1991-4619,1997l-23,7v2900v2899l33-13C2610,10759,3662,10304,4930,9755z"/>
	<path class="st2" d="M2690,10200c0-131,3-170,13-170c7,0,57-22,112-48c55-27,138-66,185-87c105-46,149-66,320-145
		c74-34,153-70,175-80c83-38,332-152,370-170c22-10,85-39,140-64c55-24,138-62,185-84s128-59,180-82c52-24,133-61,180-82
		c47-22,126-58,175-80c114-51,143-64,288-132c65-31,120-56,123-56c2,0,32-13,66-29c35-16,128-59,208-95c80-37,163-76,185-86
		c22-11,78-35,125-54s186-80,310-136c402-181,558-250,570-250c9,0,11,38,9,153c-4,164-8,176-59,192c-14,4-70,29-125,55
		s-143,66-195,90c-108,48-173,78-315,145c-55,26-117,53-138,61c-21,7-50,20-65,28s-88,43-162,77s-168,77-208,95c-40,19-75,34-78,34
		s-53,23-112,51s-135,64-168,80c-34,16-64,29-68,29c-3,0-45,19-93,41c-138,65-221,103-323,149c-52,23-135,61-185,85
		c-49,23-133,61-185,84s-113,51-135,61c-95,46-277,130-282,130c-2,0-42,18-89,40s-87,40-90,40s-53,23-112,51s-135,64-168,80
		c-34,16-64,29-68,29s-55,23-114,51s-125,59-147,69c-150,70-219,100-226,100C2694,10370,2690,10294,2690,10200z"/>
	<path class="st3" d="M11645,10311c-33-15-85-39-115-54c-30-14-134-61-230-105s-204-93-240-110s-171-78-300-137
		c-129-58-248-112-265-120c-16-8-95-44-175-81c-80-36-173-79-208-95c-34-16-64-29-66-29c-4,0-178-80-271-125c-16-8-109-50-205-94
		c-96-43-204-92-240-109s-171-78-300-137s-262-119-295-135c-33-15-112-51-175-80c-175-79-187-84-303-139c-60-28-110-51-112-51
		c-4,0-109-48-230-104c-27-13-58-26-67-29c-11-4-19-21-23-49c-3-24-4-1164-3-2535l3-2491l195,78c107,43,232,97,278,119
		c45,23,85,41,87,41c3,0,42,17,87,39c46,21,115,53,153,71c39,18,106,50,150,70c44,21,127,58,185,83s139,61,180,80s230,106,420,192
		c190,87,377,172,415,190c39,18,117,54,175,80c168,76,179,81,305,140c66,31,142,66,170,77c27,11,54,23,60,27c5,4,28,15,51,24
		c22,8,78,34,125,56c46,22,242,112,434,199c193,88,367,168,388,178l37,18v158c0,87-2,158-4,158c-5,0-444-200-666-303
		c-41-19-122-56-180-82s-127-58-155-70c-27-13-81-37-120-55c-38-17-88-40-110-50c-22-11-94-44-160-73c-66-30-149-68-185-85
		s-195-90-355-162c-159-73-321-146-360-164c-38-18-142-66-230-106s-193-87-233-106s-119-55-175-80c-253-115-316-143-377-172
		c-156-74-309-140-314-134c-3,3-6,464-6,1024v1019l44,19c24,10,77,34,118,53c40,20,204,95,363,167c160,73,317,144,350,160
		c33,15,107,49,165,75c139,63,191,86,275,125c39,18,99,46,135,62s83,38,105,48s92,42,155,70c63,29,147,67,185,85
		c39,18,115,53,170,78s138,63,185,85c47,21,128,58,180,82s133,61,180,82c47,22,126,58,175,80c114,51,143,64,288,132
		c65,31,120,56,122,56c3,0,37,15,77,34c40,18,98,45,128,59s90,41,133,61s83,36,88,36s9,72,9,169v169l-142-65c-79-35-165-75-193-88
		c-182-85-256-119-300-137c-27-11-54-23-60-27c-5-4-28-15-51-24c-22-8-78-34-125-56c-46-22-327-151-624-286
		c-297-136-567-259-600-275c-33-15-107-49-165-75s-127-58-155-70c-27-13-81-37-120-55c-38-18-92-42-120-55c-27-12-97-44-155-70
		s-136-62-175-80c-292-136-624-285-634-285c-8,0-10,264-9,1022l3,1023l35,18c19,9,80,37,135,61s134,60,175,79s154,71,250,115
		s209,95,250,114c41,20,118,54,170,78s127,57,165,75c39,18,117,54,175,80c160,72,176,79,314,144c70,34,130,61,132,61
		c5,0,180,79,294,133c41,19,147,67,235,107s192,88,230,106c39,18,201,91,360,164c160,72,319,145,355,162c66,31,272,125,323,146
		l27,12v160c0,88-3,160-7,160C11708,10339,11678,10327,11645,10311z"/>
	<path class="st2" d="M2690,7827v-173l78-36c42-20,124-57,182-83s138-62,178-81s119-55,175-80s138-63,182-84c44-20,127-58,185-84
		s123-55,145-65c22-11,101-47,175-81c74-35,168-78,208-96c40-19,74-34,77-34c2,0,52-23,112-51c146-68,170-79,303-139
		c63-28,147-66,185-85c39-18,113-52,165-75c52-24,131-59,175-80s127-59,185-84c58-26,123-55,145-66c163-78,270-125,330-147
		c39-14,135-56,215-93s190-87,245-110s135-60,177-81c43-22,82-39,88-39s10,61,10,170v169l-47,21c-27,12-100,43-163,69
		c-63,27-149,64-190,84c-41,19-115,53-165,75c-49,22-130,59-180,82c-49,23-123,57-162,76c-40,19-75,34-78,34c-5,0-59,25-252,116
		c-50,24-95,44-99,44c-3,0-34,13-68,29c-156,75-298,141-302,141s-70,30-189,85c-27,13-86,40-130,60s-102,47-130,60
		c-27,13-70,32-95,43c-51,22-277,127-387,178c-40,19-75,34-78,34s-51,22-107,49c-166,78-238,111-244,111c-5,0-52,22-261,121
		c-57,27-105,49-108,49c-5,0-81,35-235,107c-52,25-112,52-135,61c-22,9-53,24-70,34c-16,10-33,18-37,18
		C2693,8000,2690,7922,2690,7827z"/>
	<path class="st2" d="M2692,5444c2-136,6-168,18-175c8-5,40-19,70-33c76-33,336-153,385-176c22-11,90-42,150-69c61-26,144-64,185-84
		c41-19,118-54,170-77s133-60,180-82s126-58,175-80c50-22,126-57,170-78c69-32,172-79,330-150c70-32,328-151,391-181
		c34-16,64-29,66-29c3,0,59-25,124-56c140-65,174-81,274-124c41-18,134-60,205-93c72-32,148-68,170-78s90-41,150-69
		c61-29,155-72,210-97s177-83,270-129c94-46,182-86,198-90l27-6v166v166l-52,26c-29,15-125,60-213,99c-377,171-501,228-619,285
		c-69,33-128,60-130,60c-5,0-88,38-231,105c-175,82-236,109-280,127c-27,11-61,26-75,33c-14,8-83,41-155,73c-71,33-160,74-198,91
		c-37,17-69,31-72,31s-58,25-123,56c-64,31-145,69-178,85c-34,16-65,29-69,29s-45,18-91,40c-144,69-254,120-259,120
		c-3,0-38,15-78,34c-184,86-239,112-342,157c-60,27-128,58-150,69c-75,37-277,130-282,130c-4,0-47,19-212,96c-51,24-98,44-103,44
		S2691,5536,2692,5444z"/>
</g>
</svg>
